<?xml version="1.0" encoding="iso-8859-1"?>
<!-- Generator: Adobe Illustrator 16.0.0, SVG Export Plug-In . SVG Version: 6.00 Build 0)  -->
<!DOCTYPE svg PUBLIC "-//W3C//DTD SVG 1.1//EN" "http://www.w3.org/Graphics/SVG/1.1/DTD/svg11.dtd">
<svg version="1.1" id="Capa_1" xmlns="http://www.w3.org/2000/svg" xmlns:xlink="http://www.w3.org/1999/xlink" x="0px" y="0px"
	 width="458.29px" height="458.29px" viewBox="0 0 458.29 458.29" style="enable-background:new 0 0 458.29 458.29;"
	 xml:space="preserve">
<g>
	<g>
		<path d="M445.715,204.766l-7.943-0.673c-5.029-0.429-10.158-0.721-15.349-0.92c15.829-5.36,27.8-11.944,25.628-18.983
			c-2.974-9.66-39.666-22.109-39.666-22.109C382.565-7.009,189.353-13.704,78.61,50.964C-32.135,115.63,6.541,281.367,6.541,281.367
			v26.758c54.954,57.972,117.554,43.873,173.299,35.694c30.182-4.425,52.305-9.562,70.532-21.664l6.978,123.035l11.545-0.437
			c5.919-0.22,145.302-6.355,175.277-79.154c28.721-69.741,4.9-149.84,3.871-153.22L445.715,204.766z M257.693,258.024
			c-4.56,0-8.583-2.148-11.269-5.427c-2.06-2.517-3.351-5.683-3.351-9.185c0-8.043,6.557-14.6,14.615-14.6
			c1.311,0,2.565,0.225,3.779,0.554c6.216,1.679,10.832,7.313,10.832,14.046C272.309,251.468,265.761,258.024,257.693,258.024z
			 M422.399,356.631c-18.254,44.326-100.743,60.239-142.861,63.851l-6.772-119.293c6.228-7.875,12.131-17.236,17.941-28.689
			c8.119-16.002,19.528-27.575,32.115-36.171c24.453-5.382,54.385-9.891,86.16-9.891c6.243,0,12.443,0.168,18.514,0.521
			C432.373,247.705,443.054,306.454,422.399,356.631z"/>
	</g>
</g>
<g>
</g>
<g>
</g>
<g>
</g>
<g>
</g>
<g>
</g>
<g>
</g>
<g>
</g>
<g>
</g>
<g>
</g>
<g>
</g>
<g>
</g>
<g>
</g>
<g>
</g>
<g>
</g>
<g>
</g>
</svg>
