<?xml version="1.0" encoding="utf-8"?>
<!-- Generator: Adobe Illustrator 16.0.0, SVG Export Plug-In . SVG Version: 6.00 Build 0)  -->
<!DOCTYPE svg PUBLIC "-//W3C//DTD SVG 1.1//EN" "http://www.w3.org/Graphics/SVG/1.1/DTD/svg11.dtd">
<svg version="1.1" id="Layer_1" xmlns="http://www.w3.org/2000/svg" xmlns:xlink="http://www.w3.org/1999/xlink" x="0px" y="0px"
	 width="448px" height="448px" viewBox="0 0 448 448" enable-background="new 0 0 448 448" xml:space="preserve">
<g>
	<path d="M184,178.75c0.398-0.234,0.801-0.387,1.23-0.609c2.227-1.242,4.504-2.371,6.832-3.383c0.699-0.305,1.379-0.625,2.074-0.906
		c2.848-1.16,5.758-2.152,8.719-2.977c0.496-0.137,1-0.223,1.496-0.344c2.551-0.648,5.145-1.16,7.762-1.551
		c0.797-0.129,1.664-0.25,2.504-0.352c3.113-0.387,6.246-0.594,9.383-0.617c3.133,0.02,6.266,0.227,9.375,0.617
		c0.848,0.102,1.68,0.223,2.52,0.352c2.602,0.387,5.18,0.898,7.73,1.543c0.504,0.129,1.023,0.215,1.527,0.359
		c2.953,0.82,5.855,1.809,8.695,2.961c0.711,0.289,1.41,0.617,2.121,0.93c2.305,1.008,4.555,2.125,6.758,3.352
		c0.418,0.223,0.867,0.391,1.273,0.625c0,0,0-139.379,0-139.691c-0.258-10.258-4.445-20.023-11.695-27.285
		c-11.211-11.27-28.039-14.82-42.844-9.039c-14.809,5.781-24.781,19.793-25.391,35.68C184,38.82,184,178.75,184,178.75z"/>
	<path d="M424,296.012H288c-0.602,0.801-1.305,1.512-1.938,2.289c-0.926,1.152-1.863,2.289-2.848,3.375
		c-1.168,1.297-2.398,2.512-3.641,3.719c-1.039,1.02-2.07,2.027-3.199,2.977c-1.313,1.145-2.688,2.199-4.063,3.25
		c-1.145,0.863-2.266,1.742-3.441,2.543c-1.457,0.992-2.969,1.871-4.48,2.762c-1.207,0.703-2.398,1.445-3.629,2.086
		c-1.602,0.801-3.25,1.535-4.906,2.25c-1.238,0.543-2.457,1.125-3.719,1.598c-1.777,0.664-3.602,1.184-5.426,1.723
		c-1.215,0.359-2.398,0.797-3.641,1.094c-2.055,0.504-4.16,0.801-6.27,1.176c-1.047,0.168-2.074,0.426-3.137,0.551
		c-6.422,0.801-12.922,0.801-19.344,0c-1.063-0.125-2.09-0.383-3.145-0.551c-2.105-0.344-4.207-0.672-6.266-1.176
		c-1.23-0.305-2.398-0.727-3.637-1.086c-1.824-0.547-3.648-1.066-5.426-1.73c-1.262-0.473-2.465-1.055-3.695-1.598
		c-1.664-0.73-3.328-1.434-4.938-2.273c-1.23-0.633-2.398-1.367-3.598-2.063c-1.527-0.898-3.051-1.785-4.512-2.785
		c-1.168-0.801-2.281-1.664-3.41-2.52c-1.391-1.059-2.773-2.121-4.094-3.273c-1.09-0.945-2.113-1.945-3.145-2.953
		c-1.258-1.215-2.488-2.445-3.672-3.75c-0.977-1.082-1.906-2.207-2.824-3.344c-0.633-0.801-1.336-1.496-1.945-2.305H24
		c-13.254,0-24,10.746-24,24s10.746,24,24,24h400c13.254,0,24-10.746,24-24s-10.746-24-24-24V296.012z"/>
	<path d="M224,280.012c14.707,0.023,27.539-9.969,31.129-24.23c3.586-14.262-2.992-29.133-15.957-36.074
		c-12.969-6.938-28.992-4.164-38.867,6.734c-9.879,10.895-11.07,27.113-2.898,39.34C203.34,274.664,213.316,280.004,224,280.012z"/>
	<path d="M40,224.012v56h110.672c-1.18-2.711-2.199-5.484-3.063-8.313c-0.184-0.59-0.305-1.199-0.473-1.789
		c-0.801-2.816-1.445-5.676-1.93-8.563c-0.152-0.945-0.313-1.871-0.43-2.816c-0.906-6.219-1.02-12.527-0.336-18.773
		c0.094-0.898,0.277-1.777,0.406-2.672c0.25-1.816,0.496-3.633,0.863-5.426c0.227-1.047,0.535-2.07,0.801-3.113
		c0.398-1.598,0.801-3.199,1.289-4.797c0.344-1.082,0.801-2.129,1.168-3.203c0.543-1.48,1.07-2.965,1.703-4.422
		c0.473-1.074,1.008-2.105,1.52-3.152c0.68-1.391,1.352-2.777,2.113-4.129c0.582-1.039,1.223-2.039,1.855-3.047
		c0.801-1.297,1.602-2.586,2.504-3.832c0.695-0.992,1.441-1.945,2.184-2.906c0.93-1.191,1.871-2.398,2.871-3.527
		c0.801-0.926,1.656-1.816,2.504-2.703c0.609-0.633,1.152-1.313,1.777-1.918V48.715c-20.242,6.5-39.195,16.488-56,29.512v105.785
		c0,4.418-3.582,8-8,8s-8-3.582-8-8V91.949C60.141,126.516,39.918,174.203,40,224.012z"/>
	<path d="M280,48.73v142.211c0.609,0.59,1.129,1.238,1.711,1.848c0.898,0.934,1.785,1.871,2.633,2.84
		c0.953,1.094,1.848,2.23,2.734,3.367c0.801,1.008,1.602,2.016,2.305,3.055c0.801,1.203,1.602,2.402,2.402,3.672
		c0.664,1.059,1.336,2.113,1.949,3.203c0.73,1.301,1.379,2.637,2.035,4c0.535,1.094,1.094,2.168,1.598,3.285
		c0.617,1.41,1.137,2.867,1.664,4.305c0.41,1.105,0.848,2.184,1.199,3.297c0.496,1.551,0.883,3.137,1.281,4.719
		c0.266,1.059,0.586,2.09,0.801,3.152c0.367,1.793,0.617,3.617,0.863,5.434c0.129,0.895,0.313,1.766,0.41,2.664
		c0.68,6.25,0.57,12.563-0.34,18.781c-0.117,0.938-0.277,1.867-0.43,2.801c-0.484,2.898-1.129,5.77-1.938,8.594
		c-0.16,0.582-0.277,1.176-0.453,1.758c-0.879,2.824-1.91,5.594-3.098,8.297H408v-56c0.098-48.824-19.309-95.664-53.902-130.113
		c-0.684-0.68-1.41-1.301-2.098-1.965v92.078c0,4.418-3.582,8-8,8s-8-3.582-8-8V78.125C319.16,65.184,300.219,55.238,280,48.73z"/>
	<path d="M160.359,241.234c-3.285,30.742,15.922,59.422,45.602,68.09c5.84,1.816,11.922,2.723,18.039,2.688
		c26.527,0.016,50.309-16.34,59.781-41.117s2.668-52.828-17.102-70.516c-1.465-1.313-2.977-2.551-4.535-3.719
		c-9.402-7.008-20.555-11.281-32.234-12.352c-1.965-0.199-3.938-0.297-5.91-0.297C191.301,184.074,163.883,208.727,160.359,241.234z
		 M192,212.324c16.848-15.023,41.902-16.23,60.113-2.898c18.215,13.336,24.629,37.586,15.395,58.184
		c-9.234,20.594-31.605,31.938-53.68,27.211c-22.07-4.727-37.84-24.234-37.828-46.809C176.008,234.379,181.828,221.398,192,212.324z
		"/>
</g>
</svg>
