<svg xmlns="http://www.w3.org/2000/svg" width="594.958" height="730.868" xml:space="preserve"><g clip-rule="evenodd"><path fill="none" stroke="#231F20" stroke-miterlimit="2.613" d="M133.59 523.814a593.816 593.816 0 0 1-15.364-14.979c-15.138-15.311-29.272-31.369-41.827-48.101a369.117 369.117 0 0 1-5.283-7.21c-7.224-10.104-13.856-20.453-19.771-31.025-4.917-8.785-9.34-17.729-13.199-26.813-3.491-8.223-6.52-16.563-9.033-25.017a218.238 218.238 0 0 1-2.835-10.487c-7.613-31.266-8.049-64.014 1.256-97.932a167.084 167.084 0 0 1 1.561-5.356c4.87-15.661 12.046-29.911 21.18-42.828C56.532 205.223 63.708 197 71.69 189.38c17.525-16.728 38.945-30.563 63.084-41.76V79.273c22.685-.004 104.556-.009 136.892-.012l7.365-.002 5.196-.001c6.609-.002 4.235-.004 1.201-.006l-3.769-.002c-1.303-.002-1.158-.005 3.07-.005l5.632-.001 11.438-.001 13.123-.003 126.731-.024-.48 67.276c5.115 1.413 10.62 3.371 16.354 5.848 11.065 4.782 22.979 11.499 34.553 19.964 11.937 8.73 23.512 19.321 33.424 31.566 8.369 9.693 14.614 20.197 19.413 31.251a147.042 147.042 0 0 1 3.087 7.709 168.71 168.71 0 0 1 3.005 8.906 216.736 216.736 0 0 1 6.206 26.139c4.916 28.587 3.492 56.047-2.81 82.32a219.715 219.715 0 0 1-2.848 10.685c-2.523 8.606-5.563 17.082-9.064 25.425-3.869 9.222-8.303 18.279-13.229 27.175-5.928 10.698-12.567 21.157-19.797 31.372a389.703 389.703 0 0 1-5.284 7.285c-12.558 16.904-26.683 33.128-41.788 48.639a620.524 620.524 0 0 1-15.324 15.196c-9.429 9.037-19.141 17.822-29.009 26.34-40.666 35.105-83.997 65.753-121.116 91.624-.733-.444-1.471-.89-2.21-1.339-.861-.523-1.726-1.051-2.593-1.579-2.228-1.358-4.479-2.74-6.75-4.142a1375.774 1375.774 0 0 1-21.131-13.303 1253.372 1253.372 0 0 1-14.611-9.529 1117.61 1117.61 0 0 1-32.981-22.686 951.414 951.414 0 0 1-6.767-4.887 995.286 995.286 0 0 1-6.354-4.662c-23.857-17.671-47.719-37.065-69.959-57.995z"/><path fill-rule="evenodd" fill="#08A64E" d="M133.903 523.814a593.816 593.816 0 0 1-15.364-14.979c-15.138-15.311-29.272-31.369-41.827-48.101a369.117 369.117 0 0 1-5.283-7.21c-7.223-10.104-13.855-20.453-19.771-31.025-4.917-8.785-9.34-17.729-13.198-26.813-3.491-8.223-6.52-16.563-9.033-25.017a210.31 210.31 0 0 1-1.909-6.829 215.117 215.117 0 0 1-.926-3.658c-7.613-31.266-8.049-64.014 1.256-97.932a167.084 167.084 0 0 1 1.562-5.356c4.87-15.661 12.046-29.911 21.181-42.828C56.844 205.223 64.02 197 72.002 189.38c17.525-16.728 38.945-30.563 63.084-41.76V79.273c22.686-.004 104.557-.009 136.893-.012l7.365-.002 5.195-.001c6.609-.002 4.235-.004 1.201-.006l-3.769-.002c-1.304-.002-1.157-.005 3.07-.005l5.632-.001 11.438-.001 13.123-.003 126.731-.024-.48 67.276c5.115 1.413 10.62 3.371 16.354 5.848 11.065 4.782 22.979 11.499 34.553 19.964 11.937 8.73 23.512 19.321 33.424 31.566 8.369 9.693 14.614 20.197 19.413 31.251a147.042 147.042 0 0 1 3.087 7.709 168.71 168.71 0 0 1 3.005 8.906 216.736 216.736 0 0 1 6.206 26.139c4.916 28.587 3.492 56.047-2.81 82.32a219.715 219.715 0 0 1-2.848 10.685c-2.523 8.606-5.563 17.082-9.064 25.425-3.869 9.222-8.303 18.279-13.229 27.175-5.928 10.698-12.567 21.157-19.797 31.372a389.703 389.703 0 0 1-5.284 7.285c-12.558 16.904-26.683 33.128-41.788 48.639a620.524 620.524 0 0 1-15.324 15.196c-9.429 9.037-19.141 17.822-29.009 26.34-40.666 35.105-83.997 65.753-121.116 91.624-.732-.444-1.471-.89-2.209-1.339l-2.594-1.579c-2.228-1.358-4.479-2.74-6.75-4.142a1385.546 1385.546 0 0 1-21.131-13.303 1253.372 1253.372 0 0 1-14.611-9.529 1118.914 1118.914 0 0 1-32.98-22.686 1055.31 1055.31 0 0 1-13.122-9.549c-23.857-17.671-47.719-37.065-69.958-57.995z"/></g><g clip-rule="evenodd"><path fill-rule="evenodd" fill="#2B4091" d="M51.315 212.31c-1.623 2.694-5.063 8.054-8.697 14.402-3.634 6.349-7.462 13.687-8.728 17.41-1.266 3.723.03 3.831 2.334 6.045 2.304 2.216 5.615 6.538 9.603 10.872 3.987 4.333 8.65 8.681 14.652 13.553 6.003 4.872 13.343 10.27 19.518 14.326 6.175 4.056 11.183 6.771 19.938 10.431 8.754 3.659 21.254 8.262 33.704 13.101 12.45 4.84 24.849 9.914 36.712 15.954 11.862 6.041 23.188 13.048 34.897 20.759 11.711 7.711 23.806 16.128 31.509 21.728 7.703 5.598 11.014 8.38 13.886 11.538s5.309 6.694 7.333 12.075c2.024 5.381 3.637 12.604 4.712 19.427 1.076 6.82 1.613 13.239.625 22.552-.986 9.31-3.499 21.509-4.658 29.892-1.16 8.388-.965 12.952-.196 18.961.769 6.013 2.112 13.475 3.121 19 1.008 5.528 1.68 9.123 1.663 13.356-.016 4.233-.722 9.108-1.309 13.03-.586 3.926-1.055 6.903-1.337 11.266-.283 4.363-.381 10.108.134 15.382.516 5.272 1.645 10.072 2.653 14.519 1.008 4.445 1.896 8.537 2.076 12.49.18 3.953-.348 7.77-2.507 12.645-2.159 4.879-5.949 10.82-7.777 14.294-1.827 3.473-1.694 4.481-1.684 5.272.011.792-.103 1.366 2.566 3.087 2.67 1.722 8.12 4.584 15.398 8.817 7.278 4.232 16.385 9.84 21.074 12.55 4.69 2.713 4.963 2.535 11.351-1.686 6.39-4.218 18.896-12.475 26.289-17.578 7.395-5.104 9.677-7.049 10.801-8.01 1.127-.957 1.097-.93.261-1.729-.837-.8-2.478-2.426-4.141-4.032-1.664-1.603-3.35-3.186-4.642-4.548-1.293-1.363-2.192-2.505-2.845-4.352-.651-1.847-1.055-4.398-1.122-7.474-.067-3.076.203-6.671.941-11.022.74-4.352 1.949-9.458 3.143-14.416 1.192-4.958 2.368-9.762 2.939-14.298.57-4.536.537-8.806-.083-13.255-.622-4.454-1.833-9.093-2.757-12.971-.923-3.883-1.563-7.006-1.73-9.676-.169-2.67.134-4.887.717-8.088s1.447-7.392 1.866-12.215c.422-4.824.398-10.282-.225-15.991-.622-5.71-1.845-11.676-2.971-17.657-1.124-5.981-2.154-11.975-2.544-17.26-.39-5.28-.138-9.844.4-14.381.537-4.536 1.362-9.045 1.967-13.624.606-4.58.996-9.232 1.388-13.125.392-3.891.788-7.021 1.884-10.535 1.097-3.515 2.893-7.413 5.346-10.575 2.455-3.162 5.566-5.588 9.514-7.952 3.948-2.365 8.73-4.668 14.726-7.386 5.997-2.717 13.209-5.845 19.669-9.108 6.462-3.263 12.172-6.662 16.653-9.914 4.479-3.25 7.729-6.355 10.644-9.307s5.491-5.749 8.112-8.505c2.62-2.754 5.286-5.467 8.803-8 3.517-2.532 7.884-4.884 12.071-6.683 4.189-1.8 8.196-3.047 12.195-4.324s7.987-2.584 14.3-5.052c6.314-2.468 14.95-6.097 23.015-10.179s15.558-8.62 22.128-13.056c6.57-4.438 12.22-8.776 17.059-13.319 4.842-4.543 8.874-9.291 12.182-13.597 3.308-4.307 5.887-8.172 7.179-10.104 1.289-1.933 1.289-1.933-.193-5.623-1.482-3.689-4.449-11.069-8.881-18.574-4.431-7.505-10.327-15.137-13.276-18.952-2.948-3.816-2.948-3.816-4.297-2.738-1.351 1.078-4.05 3.234-8.487 5.972-4.438 2.737-10.614 6.054-17.355 9.212-6.74 3.157-14.047 6.153-19.558 8.744-5.511 2.591-9.228 4.776-13.095 7.461-3.867 2.684-7.886 5.866-11.682 9.294-3.798 3.427-7.373 7.1-12.069 12.783s-10.508 13.378-14.178 18.152c-3.67 4.773-5.198 6.625-6.996 8.137-1.797 1.512-3.864 2.684-6.521 3.594-2.656.91-5.896 1.556-9.157 2.111-3.261.554-6.537 1.016-12.005 1.936-5.469.921-13.13 2.298-20.356 4.045-7.224 1.747-14.01 3.864-19.159 5.858-5.146 1.995-8.655 3.866-11.98 6.016-3.327 2.151-6.474 4.581-11.069 9.206-4.597 4.625-10.647 11.446-16.208 17.125-5.562 5.679-10.636 10.216-13.172 12.484-2.537 2.268-2.537 2.268-4.13 2.257-1.593-.012-4.779-.034-8.391-3.697-3.612-3.663-7.651-10.965-11.39-16.41-3.739-5.446-7.18-9.033-10.843-12.376-3.662-3.343-7.547-6.443-12.967-9.422-5.42-2.978-12.375-5.834-19.87-7.984-7.492-2.151-15.523-3.596-23.37-5.746-7.847-2.151-15.507-5.007-23-9.14-7.494-4.134-14.819-9.543-21.892-15.542s-13.895-12.584-20.497-18.247c-6.603-5.662-12.988-10.4-18.684-13.928-5.695-3.528-10.702-5.847-16.657-7.916-5.955-2.07-12.857-3.89-21.859-6.281a10930.78 10930.78 0 0 1-25.563-6.822c-5.461-1.462-5.268-1.434-6.891 1.261z"/><path fill-rule="evenodd" fill="#FCEE21" stroke="#FCEE21" stroke-width=".5" stroke-miterlimit="2.613" d="m291.517 110.285 23.337 87.093a27.17 27.17 0 0 0-.585-.395l-.082-.055-.085-.055-.085-.056c-.169-.109-.338-.219-.508-.327l-.084-.053-.259-.161-.084-.053a76.841 76.841 0 0 0-.418-.253 24.036 24.036 0 0 0-.469-.276l-.336-.194a74.21 74.21 0 0 0-.56-.313l-.295-.16a32.148 32.148 0 0 0-.581-.306l-.248-.128-.091-.045c-.19-.097-.382-.191-.573-.285l-.246-.119 87.082-23.333-61.238 61.239h-2.397a42.518 42.518 0 0 0-.006-1.761l-.002-.017v-.021a32.951 32.951 0 0 0-.04-.997l-.004-.08a38.194 38.194 0 0 0-.059-.962l-.01-.107v-.001l3.945 3.946h73.363l2.666-.715-87.095-23.337c.134.194.267.389.396.585l.055.083.056.085.055.084.008.012c.108.165.215.33.319.496l.055.085.159.257.054.085.244.401c.097.162.19.323.285.485l.193.335c.106.187.21.374.314.562l.15.276c.109.205.218.411.324.616l.136.265c.112.218.221.438.327.659l.099.203.006.014 23.335-87.082-63.756 63.755h.001l.107-.008c.32-.023.64-.044.962-.061l.08-.004c.332-.017.663-.029.997-.037l.017-.001.004-.001h.017a40.422 40.422 0 0 1 2.092 0h.017l.004.001.018.001c.333.008.665.021.996.037l.079.004c.323.017.643.038.962.061l.108.008h.001l-63.756-63.755 23.333 87.082.119-.245c.093-.192.188-.383.284-.573l.045-.091.128-.248c.101-.195.203-.388.306-.581l.161-.295.313-.561.194-.336a31.989 31.989 0 0 1 .53-.886l.053-.085.161-.256.053-.086c.108-.17.218-.339.328-.508l.055-.084.055-.084.055-.083c.13-.196.262-.391.395-.585l-87.093 23.337 2.665.715h73.364l3.945-3.946v.001l-.008.107c-.023.321-.044.641-.061.962l-.004.08c-.017.331-.03.664-.039.997v.017l-.001.004v.017a40.534 40.534 0 0 0-.007 1.761h-2.398l-61.239-61.239 87.083 23.333-.014.007-.203.098c-.222.108-.443.219-.664.33l-.235.121c-.219.113-.438.229-.655.347l-.245.133c-.203.11-.404.224-.604.337l-.292.169c-.168.098-.336.196-.502.296l-.401.243-.085.053-.313.196c-.176.111-.351.224-.525.337l-.012.008-.085.056-.084.055-.083.055c-.197.13-.391.261-.585.395l23.339-87.096z"/><g fill-rule="evenodd" fill="#F9F9F9"><path d="M292.266 413.539c.007-.14.042-.514.042-.884.001-34.022 0-68.045.003-102.066 0-1.901-.574-3.554-1.649-5.157-6.346-9.446-14.939-16.057-25.407-20.313-10.177-4.139-20.848-5.754-31.765-5.867-4.617-.045-7.196 2.739-7.196 7.381-.003 22.886-.003 45.773-.002 68.658 0 10.073-.011 20.144.01 30.216.008 3.729 2.715 6.468 6.286 6.77 6.84.579 13.715.984 20.486 2.036 9.112 1.413 17.784 4.465 25.623 9.373 4.705 2.948 9.02 6.52 13.569 9.853zm10.365.573c.595-.534.886-.775 1.154-1.038 4.752-4.648 10.111-8.448 16.028-11.463 13.026-6.643 27.021-9.003 41.463-9.342 4.706-.106 7.371-2.686 7.371-7.384.002-32.728.002-65.455 0-98.182 0-4.801-2.695-7.554-7.478-7.463-8.405.16-16.704 1.136-24.798 3.531-11.585 3.427-21.579 9.29-29.321 18.748-2.92 3.569-4.55 7.28-4.521 12.151.197 32.671.101 65.342.101 98.016l.001 2.426zm76.406-111.827v2.31c0 26.525 0 53.047-.005 79.57 0 .839.005 1.682-.041 2.517-.48 8.775-8.027 15.731-16.782 16.022-6.064.205-12.156.754-18.147 1.713-9.591 1.532-18.504 5.037-26.485 10.674-1.755 1.234-3.377 2.654-5.061 3.987.073.13.142.258.215.386.469-.071.941-.114 1.401-.217 7.715-1.721 15.531-2.583 23.418-2.812 14.834-.426 29.443 1.382 43.922 4.441 5.62 1.184 9.002-1.601 9.002-7.375v-99.043c0-1.848.042-3.695-.01-5.54-.104-3.627-2.684-6.366-6.288-6.614-1.616-.11-3.24-.019-5.139-.019zm-163.129-.023c-1.718 0-3.22-.051-4.718.008-4.063.155-6.719 2.947-6.719 7.027-.003 34.915-.003 69.835 0 104.751.002 5.019 3.645 7.971 8.542 6.956 2.624-.541 5.227-1.234 7.877-1.568 7.974-1.015 15.946-2.131 23.953-2.755 10.455-.813 20.891-.246 31.229 1.664 2.035.376 4.069.762 6.103 1.142-3.181-3.438-6.887-5.995-10.882-8.116-11.875-6.3-24.702-8.499-37.982-8.767-1.875-.04-3.821-.242-5.597-.804-7.277-2.306-11.796-8.771-11.799-16.704-.016-26.807-.007-53.61-.007-80.415v-2.419z"/><path d="M292.266 413.539c-4.549-3.333-8.864-6.905-13.569-9.853-7.838-4.908-16.51-7.96-25.623-9.373-6.771-1.052-13.646-1.457-20.486-2.036-3.57-.302-6.278-3.04-6.286-6.77-.021-10.072-.01-20.144-.01-30.216-.001-22.885-.001-45.772.002-68.658 0-4.643 2.579-7.427 7.196-7.381 10.917.113 21.588 1.729 31.765 5.867 10.468 4.256 19.061 10.867 25.407 20.313 1.075 1.603 1.649 3.256 1.649 5.157-.003 34.021-.002 68.044-.003 102.066.001.37-.035.744-.042.884zM302.631 414.112v-2.426c0-32.674.097-65.345-.101-98.016-.029-4.871 1.601-8.582 4.521-12.151 7.742-9.458 17.736-15.321 29.321-18.748 8.094-2.396 16.393-3.371 24.798-3.531 4.782-.091 7.478 2.662 7.478 7.463.002 32.727.002 65.454 0 98.182 0 4.698-2.665 7.277-7.371 7.384-14.442.339-28.437 2.699-41.463 9.342-5.917 3.015-11.276 6.814-16.028 11.463-.269.263-.56.504-1.155 1.038z"/><path d="M379.037 302.285c1.899 0 3.523-.091 5.139.02 3.604.248 6.184 2.987 6.288 6.614.052 1.844.01 3.692.01 5.54v99.043c0 5.774-3.382 8.559-9.002 7.375-14.479-3.06-29.088-4.867-43.922-4.441-7.887.229-15.703 1.091-23.418 2.812-.46.103-.933.146-1.401.217-.073-.128-.142-.256-.215-.386 1.684-1.333 3.306-2.753 5.061-3.987 7.981-5.637 16.895-9.142 26.485-10.674 5.991-.959 12.083-1.508 18.147-1.713 8.755-.291 16.302-7.247 16.782-16.022.046-.835.041-1.678.041-2.517.005-26.523.005-53.045.005-79.57v-2.311zM215.908 302.262v2.42c0 26.805-.009 53.608.007 80.415.003 7.933 4.522 14.398 11.799 16.704 1.776.562 3.722.764 5.597.804 13.28.268 26.107 2.467 37.982 8.767 3.995 2.121 7.701 4.679 10.882 8.116-2.034-.38-4.067-.766-6.103-1.142-10.337-1.91-20.773-2.478-31.229-1.664-8.007.624-15.979 1.74-23.953 2.755-2.65.334-5.253 1.027-7.877 1.568-4.897 1.015-8.54-1.938-8.542-6.956-.003-34.916-.003-69.836 0-104.751 0-4.08 2.656-6.872 6.719-7.027 1.498-.06 3-.009 4.718-.009z"/></g><path fill="none" stroke="#231F20" stroke-miterlimit="2.613" d="M220.056 594.281v50.498M233.363 603.188v41.591M353.669 603.456v41.323M368.564 592.533v52.246M384.792 579.594v65.185M201.602 580.59v64.189"/><path fill-rule="evenodd" fill="#FCEE21" d="M352.577 231.299c0-34.611-28.057-62.668-62.668-62.668-34.61 0-62.667 28.057-62.667 62.668h125.335zm-20.926-.179h-80.128c0-22.126 17.938-40.064 40.064-40.064 22.127 0 40.064 17.937 40.064 40.064z"/></g><path fill-rule="evenodd" clip-rule="evenodd" fill="#FFF" stroke="#231F20" stroke-miterlimit="2.613" d="M55.538.5h463.914v78.024H55.538z"/><g fill="#231F20"><path d="M108.834 61.518V19.383c0-.936.199-1.615.597-2.04.398-.423 1.017-.636 1.858-.636h18.247c.664 0 1.15.268 1.46.803.309.535.464 1.383.464 2.542v2.073c0 1.16-.155 2.006-.464 2.542-.31.535-.796.803-1.46.803h-10.351v9.765h9.753c.664 0 1.15.268 1.46.802.309.535.464 1.383.464 2.542v2.073c0 1.16-.155 2.007-.464 2.542-.31.535-.796.803-1.46.803h-9.753V61.52c0 1.427-1.284 2.14-3.849 2.14h-2.654c-2.565-.002-3.848-.715-3.848-2.142zM137.498 62.889c-.398-.423-.597-1.104-.597-2.04V19.383c0-.936.199-1.615.597-2.04.398-.423 1.017-.636 1.858-.636h19.574c.664 0 1.15.268 1.46.803.309.535.464 1.383.464 2.542v2.073c0 1.16-.155 2.006-.464 2.542-.31.535-.796.803-1.46.803h-11.678v9.698h10.351c.664 0 1.15.268 1.46.802.309.535.464 1.383.464 2.542v2.074c0 1.16-.155 2.006-.464 2.541-.31.535-.796.803-1.46.803h-10.351v10.835h11.744c.664 0 1.139.268 1.427.802.287.535.431 1.383.431 2.542v2.073c0 1.16-.144 2.007-.431 2.542-.288.535-.763.803-1.427.803h-19.64c-.841-.003-1.46-.214-1.858-.638zM196.153 36.739c.398.424.597 1.104.597 2.04V58.71c0 1.026-.675 1.951-2.024 2.775-1.35.826-3.019 1.461-5.01 1.906-1.99.445-3.893.669-5.706.669-6.194 0-10.761-1.95-13.702-5.852-2.942-3.901-4.413-9.976-4.413-18.225 0-8.026 1.481-14 4.446-17.924 2.963-3.923 7.564-5.885 13.801-5.885 1.99 0 3.915.234 5.772.702s3.361 1.07 4.512 1.806c1.149.736 1.725 1.483 1.725 2.241 0 .58-.232 1.36-.697 2.341-.464.981-1.028 1.839-1.692 2.575s-1.261 1.104-1.792 1.104c-.177 0-.642-.167-1.394-.501a16.824 16.824 0 0 0-2.521-.87c-.929-.245-2.035-.368-3.317-.368-2.832 0-4.91 1.204-6.237 3.611s-1.991 6.153-1.991 11.236c0 5.44.63 9.286 1.891 11.537 1.261 2.252 3.129 3.378 5.607 3.378 1.062 0 1.968-.089 2.72-.268v-9.765h-3.384c-.664 0-1.151-.268-1.46-.803-.31-.535-.464-1.381-.464-2.542v-2.14c0-1.159.155-2.006.464-2.542.309-.535.796-.803 1.46-.803h10.948c.843 0 1.463.212 1.861.636zM202.588 40.116c0-15.962 5.794-23.943 17.384-23.943 5.662 0 9.963 1.939 12.906 5.818 2.941 3.879 4.412 9.921 4.412 18.125s-1.471 14.246-4.412 18.125c-2.942 3.879-7.244 5.819-12.906 5.819-11.59 0-17.384-7.981-17.384-23.944zm21.299 13.844c.972-.892 1.702-2.441 2.189-4.648.486-2.207.73-5.272.73-9.196 0-3.879-.244-6.922-.73-9.129-.487-2.207-1.217-3.756-2.189-4.648-.974-.891-2.256-1.337-3.849-1.337s-2.886.446-3.882 1.337c-.995.893-1.748 2.441-2.256 4.648-.509 2.207-.763 5.25-.763 9.129 0 3.879.254 6.934.763 9.163.508 2.23 1.261 3.79 2.256 4.682.996.893 2.29 1.337 3.882 1.337s2.876-.445 3.849-1.338zM246.48 58.274c-2.81-3.856-4.213-9.954-4.213-18.292 0-8.026 1.47-14 4.413-17.924 2.941-3.923 7.486-5.885 13.635-5.885 2.079 0 4.003.246 5.772.735 1.371.401 2.057 1.361 2.057 2.876 0 1.695-.298 3.21-.896 4.548-.597 1.338-1.339 1.851-2.223 1.539a14.097 14.097 0 0 0-4.247-.669c-2.654 0-4.634 1.227-5.938 3.678-1.305 2.453-1.958 6.176-1.958 11.169 0 4.994.652 8.728 1.958 11.203 1.304 2.475 3.395 3.712 6.271 3.712.84 0 1.548-.056 2.123-.167a27.411 27.411 0 0 0 2.256-.568c.133-.044.332-.067.597-.067.885 0 1.548.558 1.991 1.672.442 1.115.664 2.586.664 4.414 0 .669-.133 1.237-.398 1.706-.266.468-.774.836-1.526 1.104-.752.268-1.748.501-2.986.702a23.995 23.995 0 0 1-3.848.301c-6.195-.001-10.695-1.93-13.504-5.787zM271.197 40.116c0-15.962 5.794-23.943 17.384-23.943 5.662 0 9.963 1.939 12.906 5.818 2.941 3.879 4.412 9.921 4.412 18.125s-1.471 14.246-4.412 18.125c-2.943 3.879-7.245 5.819-12.906 5.819-11.589 0-17.384-7.981-17.384-23.944zm21.3 13.844c.972-.892 1.702-2.441 2.189-4.648.486-2.207.73-5.272.73-9.196 0-3.879-.244-6.922-.73-9.129-.487-2.207-1.217-3.756-2.189-4.648-.974-.891-2.256-1.337-3.849-1.337s-2.886.446-3.882 1.337c-.995.893-1.748 2.441-2.256 4.648-.509 2.207-.763 5.25-.763 9.129 0 3.879.254 6.934.763 9.163.508 2.23 1.261 3.79 2.256 4.682.996.893 2.29 1.337 3.882 1.337s2.875-.445 3.849-1.338zM329.057 48.242c-.398-.245-.753-.657-1.062-1.237l-4.91-9.229a17.513 17.513 0 0 1-.796-1.706c-.266-.646-.465-1.125-.598-1.438l-.266.067c.266 1.605.398 2.832.398 3.678v23.141c0 .759-.299 1.304-.896 1.639-.598.334-1.582.501-2.953.501h-2.256c-1.372 0-2.355-.167-2.953-.501-.597-.334-.896-.88-.896-1.639V18.714c0-.758.299-1.304.896-1.639.598-.334 1.581-.502 2.953-.502h2.057c1.062 0 1.901.146 2.521.435.619.291 1.105.769 1.46 1.438l8.228 15.717c.441.803.862 1.873 1.261 3.21.309-1.204.707-2.274 1.194-3.21l8.228-15.717c.354-.669.84-1.147 1.46-1.438.619-.29 1.46-.435 2.521-.435h2.057c1.371 0 2.355.167 2.953.502.597.334.896.881.896 1.639v42.804c0 .759-.299 1.304-.896 1.639-.598.334-1.582.501-2.953.501h-2.256c-1.371 0-2.355-.167-2.952-.501-.598-.334-.896-.88-.896-1.639V38.377c0-1.07.155-2.296.465-3.678l-.266-.067c-.31.848-.796 1.896-1.46 3.144l-4.91 9.229c-.31.58-.663.993-1.062 1.237-.397.246-.929.368-1.592.368h-1.128c-.662 0-1.192-.122-1.591-.368zM356.66 40.116c0-15.962 5.794-23.943 17.385-23.943 5.661 0 9.963 1.939 12.905 5.818 2.941 3.879 4.412 9.921 4.412 18.125s-1.471 14.246-4.412 18.125c-2.942 3.879-7.244 5.819-12.905 5.819-11.591 0-17.385-7.981-17.385-23.944zm21.298 13.844c.973-.892 1.702-2.441 2.189-4.648.486-2.207.73-5.272.73-9.196 0-3.879-.244-6.922-.73-9.129-.487-2.207-1.217-3.756-2.189-4.648-.974-.891-2.256-1.337-3.849-1.337-1.592 0-2.886.446-3.881 1.337-.995.893-1.748 2.441-2.256 4.648-.51 2.207-.764 5.25-.764 9.129 0 3.879.254 6.934.764 9.163.508 2.23 1.261 3.79 2.256 4.682.995.893 2.289 1.337 3.881 1.337 1.594 0 2.876-.445 3.849-1.338zM401.116 63.09c-2.123-.646-3.672-1.527-4.645-2.642-.575-.802-.862-1.582-.862-2.341 0-1.248.331-2.519.995-3.812.663-1.293 1.394-1.939 2.189-1.939.354 0 .917.224 1.692.668.773.446 1.337.759 1.691.937 1.726.893 3.251 1.337 4.578 1.337 1.371 0 2.565-.334 3.583-1.003s1.526-1.806 1.526-3.411c0-1.204-.266-2.229-.796-3.076a7.022 7.022 0 0 0-1.958-2.074c-.774-.535-1.891-1.204-3.351-2.006-3.362-1.917-5.795-3.946-7.299-6.086s-2.256-5.016-2.256-8.628c0-4.013 1.271-7.156 3.815-9.43 2.543-2.274 5.916-3.411 10.119-3.411 1.503 0 3.096.234 4.777.702 1.681.468 2.985 1.037 3.914 1.706.797.58 1.194 1.36 1.194 2.341 0 1.16-.255 2.386-.763 3.678-.509 1.294-1.14 1.939-1.891 1.939-.355 0-.996-.177-1.925-.535-1.725-.669-3.163-1.003-4.313-1.003-1.771 0-2.986.379-3.649 1.137-.664.758-.995 1.628-.995 2.608 0 1.65.431 2.91 1.293 3.779.863.87 2.224 1.817 4.081 2.843l1.526.869c3.052 1.784 5.252 3.702 6.602 5.752 1.35 2.051 2.024 4.749 2.024 8.093 0 2.498-.531 4.805-1.593 6.922-1.062 2.118-2.677 3.824-4.844 5.117-2.168 1.293-4.844 1.939-8.028 1.939-2.163 0-4.308-.325-6.431-.97zM423.011 62.187c0-.356.066-.758.199-1.204l10.218-42.536c.31-1.248 1.659-1.873 4.048-1.873h4.313c2.433 0 3.805.625 4.114 1.873l10.218 42.536c.089.625.133 1.026.133 1.204 0 .981-.951 1.471-2.853 1.471h-3.517c-2.124 0-3.296-.468-3.517-1.404l-1.726-8.16h-10.086l-1.791 8.16c-.178.936-1.218 1.404-3.119 1.404h-3.45c-2.122 0-3.184-.49-3.184-1.471zm20.503-16.252-2.986-14.179a76.292 76.292 0 0 1-.796-5.083h-.332a77.617 77.617 0 0 1-.796 5.083l-2.92 14.179h7.83z"/></g><path fill-rule="evenodd" clip-rule="evenodd" fill="#F9F9FA" stroke="#231F20" stroke-miterlimit="2.613" d="M.5 644.779h593.958v76.212H.5z"/><g fill="#231F20"><path d="M109.101 706.088v-46.376c0-1.03.232-1.778.699-2.245.466-.466 1.214-.699 2.245-.699h12.735c3.876 0 7.299 1.117 10.269 3.35 2.969 2.233 4.454 6.49 4.454 12.771 0 4.319-.859 7.668-2.576 10.048-1.719 2.381-3.632 3.988-5.742 4.821-2.111.836-4 1.252-5.668 1.252h-5.079v17.078c0 1.571-1.472 2.355-4.417 2.355h-2.503c-2.945 0-4.417-.784-4.417-2.355zm15.164-26.574c1.128 0 2.109-.49 2.944-1.473.834-.98 1.251-2.698 1.251-5.152 0-2.404-.417-4.085-1.251-5.042-.835-.957-1.816-1.436-2.944-1.436h-3.902v13.103h3.902zM144.508 708.443V659.712c0-1.03.232-1.778.699-2.245.466-.466 1.215-.699 2.245-.699h12.293c4.514 0 8.146 1.117 10.894 3.35 2.748 2.233 4.123 5.951 4.123 11.152 0 5.741-2.332 9.889-6.993 12.44v.294c1.079.589 2.061 1.571 2.944 2.944a16.31 16.31 0 0 1 1.988 4.417l4.343 14.134.221.883c0 1.325-1.522 1.987-4.564 1.987h-2.577c-2.602 0-4.074-.662-4.417-1.987l-3.901-13.986c-.442-1.078-.946-1.84-1.509-2.281-.564-.442-1.46-.663-2.687-.663h-1.767v16.637c0 1.571-1.472 2.355-4.417 2.355h-2.503l-4.415-.001zm15.458-29.739c1.079 0 1.999-.539 2.76-1.619.76-1.079 1.141-2.65 1.141-4.712 0-2.061-.381-3.569-1.141-4.526-.761-.957-1.755-1.436-2.981-1.436h-3.902v12.293h4.123zM181.092 682.532c0-17.568 6.428-26.354 19.286-26.354 6.281 0 11.053 2.135 14.317 6.404 3.263 4.27 4.896 10.92 4.896 19.949s-1.632 15.679-4.896 19.948c-3.264 4.27-8.036 6.404-14.317 6.404-12.858.002-19.286-8.782-19.286-26.351zm23.629 15.238c1.079-.981 1.889-2.687 2.429-5.116.539-2.429.81-5.803.81-10.121 0-4.27-.271-7.619-.81-10.049-.541-2.429-1.351-4.134-2.429-5.115-1.08-.981-2.503-1.473-4.27-1.473s-3.202.491-4.307 1.473c-1.104.981-1.939 2.687-2.502 5.115-.565 2.43-.847 5.779-.847 10.049s.282 7.631.847 10.084c.563 2.455 1.398 4.172 2.502 5.153 1.104.982 2.54 1.472 4.307 1.472s3.19-.49 4.27-1.472zM247.639 704.763c-3.141-2.748-4.711-6.6-4.711-11.558v-34.229c0-1.57 1.422-2.356 4.269-2.356h2.945c2.845 0 4.27.786 4.27 2.356v33.493c0 2.013.563 3.644 1.693 4.895 1.128 1.252 2.65 1.877 4.564 1.877 1.864 0 3.374-.637 4.527-1.913s1.73-2.896 1.73-4.858v-33.493c0-1.57 1.423-2.356 4.27-2.356h2.871c2.845 0 4.27.786 4.27 2.356v34.229c0 4.958-1.559 8.81-4.674 11.558-3.117 2.749-7.448 4.122-12.993 4.122-5.548-.001-9.891-1.374-13.031-4.123zM285.916 706.088v-47.111c0-1.57 1.423-2.356 4.27-2.356h1.914c.981 0 1.767.136 2.355.405.589.271 1.079.822 1.472 1.656l13.25 23.997c.687 1.277 1.521 3.191 2.503 5.742l.295-.147c-.394-2.551-.589-4.49-.589-5.815v-23.481c0-1.57 1.423-2.356 4.27-2.356h1.767c2.845 0 4.27.786 4.27 2.356v47.111c0 1.571-1.425 2.355-4.27 2.355h-1.399c-.981 0-1.792-.136-2.429-.405-.639-.269-1.153-.821-1.546-1.656l-14.06-25.027c-.441-.736-1.104-2.307-1.987-4.712l-.368.221c.392 2.258.589 3.927.589 5.006v24.219c0 1.571-1.424 2.355-4.27 2.355h-1.767c-2.847-.002-4.27-.786-4.27-2.357zM329.347 706.088v-47.111c0-1.62 1.423-2.43 4.27-2.43h3.092c2.797 0 4.195.81 4.195 2.43v47.111c0 1.619-1.398 2.429-4.195 2.429h-3.092c-2.847 0-4.27-.81-4.27-2.429zM355.699 706.088v-39.677h-8.171c-.736 0-1.276-.295-1.619-.884-.344-.589-.516-1.521-.516-2.797v-2.282c0-1.275.172-2.208.516-2.797.343-.589.883-.884 1.619-.884H375.5c.784 0 1.349.295 1.692.884.343.589.516 1.521.516 2.797v2.282c0 1.276-.173 2.208-.516 2.797-.344.589-.908.884-1.692.884h-8.245v39.677c0 1.571-1.424 2.355-4.27 2.355h-3.018c-2.845 0-4.268-.784-4.268-2.355zM376.458 706.823c0-.392.073-.833.221-1.324l11.336-46.817c.343-1.373 1.841-2.062 4.49-2.062h4.785c2.698 0 4.22.688 4.563 2.062l11.337 46.817c.098.688.146 1.129.146 1.324 0 1.08-1.056 1.62-3.165 1.62h-3.901c-2.355 0-3.656-.516-3.901-1.546l-1.914-8.98h-11.188l-1.988 8.98c-.196 1.03-1.35 1.546-3.459 1.546h-3.828c-2.356 0-3.534-.54-3.534-1.62zm22.747-17.887-3.313-15.605a82.622 82.622 0 0 1-.884-5.594h-.368a84.574 84.574 0 0 1-.883 5.594l-3.239 15.605h8.687zM422.466 706.088v-39.677h-8.171c-.736 0-1.276-.295-1.619-.884-.344-.589-.516-1.521-.516-2.797v-2.282c0-1.275.172-2.208.516-2.797.343-.589.883-.884 1.619-.884h27.973c.784 0 1.349.295 1.692.884.343.589.516 1.521.516 2.797v2.282c0 1.276-.173 2.208-.516 2.797-.344.589-.908.884-1.692.884h-8.245v39.677c0 1.571-1.424 2.355-4.27 2.355h-3.018c-2.846 0-4.269-.784-4.269-2.355zM449.849 707.597c-.441-.466-.662-1.215-.662-2.245v-45.64c0-1.03.221-1.778.662-2.245.441-.466 1.128-.699 2.062-.699h21.715c.736 0 1.275.295 1.62.884.342.589.515 1.521.515 2.797v2.282c0 1.276-.173 2.208-.515 2.797-.345.589-.884.884-1.62.884H460.67v10.674h11.483c.735 0 1.275.294 1.619.883.343.589.516 1.521.516 2.797v2.282c0 1.277-.173 2.209-.516 2.798-.344.589-.884.883-1.619.883H460.67v11.925h13.03c.735 0 1.263.295 1.582.884.318.589.479 1.521.479 2.797v2.282c0 1.276-.16 2.208-.479 2.797-.319.589-.847.884-1.582.884h-21.789c-.934-.002-1.62-.235-2.062-.701z"/></g></svg>